<?xml version="1.0" encoding="UTF-8" standalone="no"?>
<!-- Created with Inkscape (http://www.inkscape.org/) -->

<svg
   inkscape:export-ydpi="48"
   inkscape:export-xdpi="48"
   inkscape:export-filename="64.png"
   width="128"
   height="128"
   id="svg11300"
   sodipodi:version="0.32"
   inkscape:version="1.2.2 (b0a8486541, 2022-12-01)"
   sodipodi:docname="icon.svg"
   inkscape:output_extension="org.inkscape.output.svg.inkscape"
   version="1.0"
   style="display:inline;enable-background:new"
   viewBox="0 0 128 128"
   xmlns:inkscape="http://www.inkscape.org/namespaces/inkscape"
   xmlns:sodipodi="http://sodipodi.sourceforge.net/DTD/sodipodi-0.dtd"
   xmlns:xlink="http://www.w3.org/1999/xlink"
   xmlns="http://www.w3.org/2000/svg"
   xmlns:svg="http://www.w3.org/2000/svg"
   xmlns:rdf="http://www.w3.org/1999/02/22-rdf-syntax-ns#"
   xmlns:cc="http://creativecommons.org/ns#"
   xmlns:dc="http://purl.org/dc/elements/1.1/">
  <title
     id="title4162">Adwaita Icon Template</title>
  <defs
     id="defs3">
    <rect
       x="-96.01037"
       y="-13.160818"
       width="51.004994"
       height="34.747251"
       id="rect21288" />
    <linearGradient
       y2="236"
       x2="96"
       y1="236"
       x1="32"
       gradientTransform="translate(604.81684,170.58641)"
       gradientUnits="userSpaceOnUse"
       id="linearGradient1099"
       xlink:href="#linearGradient1036" />
    <linearGradient
       id="linearGradient1036">
      <stop
         id="stop1032"
         offset="0"
         style="stop-color:#d5d3cf;stop-opacity:1;" />
      <stop
         id="stop1034"
         offset="1"
         style="stop-color:#f6f5f4;stop-opacity:1" />
    </linearGradient>
    <radialGradient
       r="32"
       fy="-76"
       fx="-244"
       cy="-76"
       cx="-244"
       gradientTransform="matrix(0.88333331,0,0,0.88333331,-460.35018,463.11973)"
       gradientUnits="userSpaceOnUse"
       id="radialGradient1103"
       xlink:href="#linearGradient1069" />
    <linearGradient
       id="linearGradient1069">
      <stop
         id="stop1065"
         offset="0"
         style="stop-color:#d5d3cf;stop-opacity:1" />
      <stop
         id="stop1067-1"
         offset="1"
         style="stop-color:#949390;stop-opacity:1" />
    </linearGradient>
    <linearGradient
       gradientUnits="userSpaceOnUse"
       y2="232"
       x2="64"
       y1="262.5"
       x1="64"
       id="linearGradient1027"
       xlink:href="#linearGradient1025"
       gradientTransform="translate(-470.5864,432.81685)" />
    <linearGradient
       id="linearGradient1025">
      <stop
         id="stop1021"
         offset="0"
         style="stop-color:#9a9996;stop-opacity:1" />
      <stop
         id="stop1023"
         offset="1"
         style="stop-color:#77767b;stop-opacity:1" />
    </linearGradient>
    <inkscape:path-effect
       effect="spiro"
       id="path-effect35304-9"
       is_visible="true" />
    <clipPath
       clipPathUnits="userSpaceOnUse"
       id="clipPath1609-7">
      <path
         sodipodi:nodetypes="cccccc"
         inkscape:connector-curvature="0"
         id="path1611-5"
         d="m 252,116 28,-28 v -8 h -36 v 36 z"
         style="fill:#e74747;stroke:none;stroke-width:0.25px;stroke-linecap:butt;stroke-linejoin:miter;stroke-opacity:1" />
    </clipPath>
    <clipPath
       id="presentation_clip_path"
       clipPathUnits="userSpaceOnUse">
      <rect
         x="0"
         y="0"
         width="21000"
         height="29700"
         id="rect7" />
    </clipPath>
    <rect
       x="-96.010368"
       y="-13.160818"
       width="51.004993"
       height="34.74725"
       id="rect21288-5" />
  </defs>
  <sodipodi:namedview
     stroke="#ef2929"
     fill="#f57900"
     id="base"
     pagecolor="#ffffff"
     bordercolor="#666666"
     borderopacity="0.25490196"
     inkscape:pageopacity="0.0"
     inkscape:pageshadow="2"
     inkscape:zoom="6.1540391"
     inkscape:cx="-30.3053"
     inkscape:cy="82.141175"
     inkscape:current-layer="layer3"
     showgrid="false"
     inkscape:grid-bbox="true"
     inkscape:document-units="px"
     inkscape:showpageshadow="false"
     inkscape:window-width="2560"
     inkscape:window-height="1368"
     inkscape:window-x="0"
     inkscape:window-y="0"
     width="400px"
     height="300px"
     inkscape:snap-nodes="true"
     inkscape:snap-bbox="true"
     objecttolerance="7"
     gridtolerance="12"
     guidetolerance="13"
     inkscape:window-maximized="1"
     inkscape:pagecheckerboard="false"
     showguides="true"
     inkscape:guide-bbox="true"
     inkscape:locked="false"
     inkscape:measure-start="0,0"
     inkscape:measure-end="0,0"
     inkscape:object-nodes="true"
     inkscape:bbox-nodes="true"
     inkscape:snap-global="true"
     inkscape:object-paths="true"
     inkscape:snap-intersection-paths="true"
     inkscape:snap-bbox-edge-midpoints="true"
     inkscape:snap-bbox-midpoints="true"
     showborder="false"
     inkscape:snap-center="true"
     inkscape:snap-object-midpoints="true"
     inkscape:snap-midpoints="true"
     inkscape:snap-smooth-nodes="true"
     inkscape:snap-text-baseline="true"
     inkscape:deskcolor="#d1d1d1">
    <inkscape:grid
       type="xygrid"
       id="grid5883"
       spacingx="2"
       spacingy="2"
       enabled="true"
       visible="true"
       empspacing="4"
       originx="0"
       originy="0"
       units="px" />
    <sodipodi:guide
       position="64,8"
       orientation="0,1"
       id="guide1073"
       inkscape:locked="false"
       inkscape:label=""
       inkscape:color="rgb(0,0,255)" />
    <sodipodi:guide
       position="12,64"
       orientation="1,0"
       id="guide1075"
       inkscape:locked="false"
       inkscape:label=""
       inkscape:color="rgb(0,0,255)" />
    <sodipodi:guide
       position="64,104"
       orientation="0,1"
       id="guide1099"
       inkscape:locked="false"
       inkscape:label=""
       inkscape:color="rgb(0,0,255)" />
    <sodipodi:guide
       position="64,128"
       orientation="0,1"
       id="guide993"
       inkscape:locked="false"
       inkscape:label=""
       inkscape:color="rgb(0,0,255)" />
    <sodipodi:guide
       position="104.14844,44.41224"
       orientation="1,0"
       id="guide995"
       inkscape:locked="false"
       inkscape:label=""
       inkscape:color="rgb(0,0,255)" />
    <sodipodi:guide
       position="9.2651362e-08,64"
       orientation="1,0"
       id="guide867"
       inkscape:locked="false"
       inkscape:label=""
       inkscape:color="rgb(0,0,255)" />
    <sodipodi:guide
       position="120,64"
       orientation="1,0"
       id="guide869"
       inkscape:locked="false"
       inkscape:label=""
       inkscape:color="rgb(0,0,255)" />
    <sodipodi:guide
       position="64,116"
       orientation="0,1"
       id="guide871"
       inkscape:locked="false"
       inkscape:label=""
       inkscape:color="rgb(0,0,255)" />
    <inkscape:grid
       type="xygrid"
       id="grid873"
       spacingx="1"
       spacingy="1"
       empspacing="8"
       color="#000000"
       opacity="0.49019608"
       empcolor="#000000"
       empopacity="0.08627451"
       dotted="true"
       originx="0"
       originy="0"
       units="px" />
    <sodipodi:guide
       position="24,64"
       orientation="1,0"
       id="guide877"
       inkscape:locked="false"
       inkscape:label=""
       inkscape:color="rgb(0,0,255)" />
    <sodipodi:guide
       position="116,64"
       orientation="1,0"
       id="guide879"
       inkscape:locked="false"
       inkscape:label=""
       inkscape:color="rgb(0,0,255)" />
    <sodipodi:guide
       position="64,120"
       orientation="0,1"
       id="guide881"
       inkscape:locked="false"
       inkscape:label=""
       inkscape:color="rgb(0,0,255)" />
    <sodipodi:guide
       position="64,12"
       orientation="0,1"
       id="guide883"
       inkscape:locked="false"
       inkscape:label=""
       inkscape:color="rgb(0,0,255)" />
    <sodipodi:guide
       position="8,64"
       orientation="1,0"
       id="guide885"
       inkscape:locked="false"
       inkscape:label=""
       inkscape:color="rgb(0,0,255)" />
    <sodipodi:guide
       position="128,64"
       orientation="1,0"
       id="guide887"
       inkscape:locked="false"
       inkscape:label=""
       inkscape:color="rgb(0,0,255)" />
    <sodipodi:guide
       position="64,0"
       orientation="0,1"
       id="guide897"
       inkscape:locked="false"
       inkscape:label=""
       inkscape:color="rgb(0,0,255)" />
    <sodipodi:guide
       position="64,24"
       orientation="0,1"
       id="guide899"
       inkscape:locked="false"
       inkscape:label=""
       inkscape:color="rgb(0,0,255)" />
    <sodipodi:guide
       position="256,256"
       orientation="-0.70710678,0.70710678"
       id="guide950"
       inkscape:locked="false"
       inkscape:label=""
       inkscape:color="rgb(0,0,255)" />
    <sodipodi:guide
       position="64,64"
       orientation="0.70710678,0.70710678"
       id="guide952"
       inkscape:locked="false"
       inkscape:label=""
       inkscape:color="rgb(0,0,255)" />
    <sodipodi:guide
       position="-68.897841,19.290906"
       orientation="1,0"
       id="guide21333"
       inkscape:locked="false" />
  </sodipodi:namedview>
  <metadata
     id="metadata4">
    <rdf:RDF>
      <cc:Work
         rdf:about="">
        <dc:format>image/svg+xml</dc:format>
        <dc:type
           rdf:resource="http://purl.org/dc/dcmitype/StillImage" />
        <dc:creator>
          <cc:Agent>
            <dc:title>GNOME Design Team</dc:title>
          </cc:Agent>
        </dc:creator>
        <dc:source />
        <cc:license
           rdf:resource="http://creativecommons.org/licenses/by-sa/4.0/" />
        <dc:title>Adwaita Icon Template</dc:title>
        <dc:subject>
          <rdf:Bag />
        </dc:subject>
        <dc:date />
        <dc:rights>
          <cc:Agent>
            <dc:title />
          </cc:Agent>
        </dc:rights>
        <dc:publisher>
          <cc:Agent>
            <dc:title />
          </cc:Agent>
        </dc:publisher>
        <dc:identifier />
        <dc:relation />
        <dc:language />
        <dc:coverage />
        <dc:description />
        <dc:contributor>
          <cc:Agent>
            <dc:title />
          </cc:Agent>
        </dc:contributor>
      </cc:Work>
      <cc:License
         rdf:about="http://creativecommons.org/licenses/by-sa/4.0/">
        <cc:permits
           rdf:resource="http://creativecommons.org/ns#Reproduction" />
        <cc:permits
           rdf:resource="http://creativecommons.org/ns#Distribution" />
        <cc:requires
           rdf:resource="http://creativecommons.org/ns#Notice" />
        <cc:requires
           rdf:resource="http://creativecommons.org/ns#Attribution" />
        <cc:permits
           rdf:resource="http://creativecommons.org/ns#DerivativeWorks" />
        <cc:requires
           rdf:resource="http://creativecommons.org/ns#ShareAlike" />
      </cc:License>
    </rdf:RDF>
  </metadata>
  <g
     id="layer1"
     inkscape:label="App Icon"
     inkscape:groupmode="layer"
     style="display:inline"
     transform="translate(0,-172)">
    <g
       inkscape:groupmode="layer"
       id="layer2"
       inkscape:label="baseplate"
       style="display:inline"
       sodipodi:insensitive="true">
      <g
         style="display:inline;fill:#000000;enable-background:new"
         transform="matrix(7.9911709,0,0,8.0036407,-167.7909,-4846.0776)"
         id="g12027"
         inkscape:export-xdpi="12"
         inkscape:export-ydpi="12" />
      <rect
         style="display:inline;overflow:visible;visibility:visible;fill:#f0f0f0;fill-opacity:1;fill-rule:nonzero;stroke:none;stroke-width:0.5;marker:none;enable-background:accumulate"
         id="rect13805"
         width="128"
         height="128"
         x="9.2651362e-08"
         y="172"
         inkscape:label="512x512" />
      <g
         id="g883"
         style="fill:none;fill-opacity:0.25098039;stroke:#a579b3;stroke-opacity:1"
         transform="translate(-24,24)" />
      <g
         id="g900"
         style="fill:none;fill-opacity:0.25098039;stroke:#a579b3;stroke-opacity:1"
         transform="translate(-24,24)" />
      <rect
         inkscape:label="512x512"
         y="172"
         x="160"
         height="16"
         width="16"
         id="rect859"
         style="display:inline;overflow:visible;visibility:visible;fill:#f0f0f0;fill-opacity:1;fill-rule:nonzero;stroke:none;stroke-width:0.5;marker:none;enable-background:accumulate" />
      <text
         xml:space="preserve"
         style="font-style:normal;font-variant:normal;font-weight:bold;font-stretch:normal;font-size:4px;line-height:125%;font-family:Cantarell;-inkscape-font-specification:'Cantarell, Bold';text-align:start;writing-mode:lr-tb;text-anchor:start;display:inline;fill:#000000;fill-opacity:1;stroke:none;stroke-width:0.332649;enable-background:new"
         x="0"
         y="164"
         id="text863"
         inkscape:label="icon-name"><tspan
           style="font-size:4px;stroke-width:0.332649"
           sodipodi:role="line"
           id="tspan861"
           x="0"
           y="164">Hicolor</tspan></text>
      <text
         inkscape:label="icon-name"
         id="text867"
         y="164"
         x="160"
         style="font-style:normal;font-variant:normal;font-weight:bold;font-stretch:normal;font-size:4px;line-height:125%;font-family:Cantarell;-inkscape-font-specification:'Cantarell, Bold';text-align:start;writing-mode:lr-tb;text-anchor:start;display:inline;fill:#000000;fill-opacity:1;stroke:none;stroke-width:0.332649;enable-background:new"
         xml:space="preserve"><tspan
           y="164"
           x="160"
           id="tspan865"
           sodipodi:role="line"
           style="font-size:4px;stroke-width:0.332649">Symbolic</tspan></text>
    </g>
    <g
       inkscape:groupmode="layer"
       id="layer9"
       inkscape:label="icons"
       style="display:inline" />
    <g
       inkscape:groupmode="layer"
       id="layer3"
       inkscape:label="hairlines"
       style="display:inline">
      <path
         d="m 61.185657,176.81159 c -1.011286,0 -1.826605,0.81572 -1.826605,1.82661 v 4.52901 c 0,0.89171 -1.951713,1.3929 -1.951713,1.3929 -2.107219,0.28435 -4.178043,0.70467 -6.197135,1.23441 -0.0017,-2.7e-4 -1.985574,0.27386 -2.327035,-0.55049 -0.341444,-0.82435 -1.718162,-4.1703 -1.718162,-4.1703 -0.386938,-0.93466 -1.467447,-1.3878 -2.402101,-1.00086 l -5.95507,2.47714 c -0.934223,0.38692 -1.371513,1.45908 -0.98418,2.39376 0,0 1.393399,3.34505 1.734843,4.17031 0.341444,0.82352 -1.267774,2.0351 -1.267774,2.0351 -1.826657,1.06783 -3.587659,2.23526 -5.262998,3.51134 2.76e-4,2.7e-4 -1.720936,1.01392 -2.35204,0.38366 -0.630691,-0.63193 -3.194518,-3.19452 -3.194518,-3.19452 -0.715336,-0.71532 -1.879061,-0.71532 -2.593949,0 l -4.553848,4.55385 c -0.714888,0.71528 -0.715302,1.87027 0,2.58559 0,0 2.572116,2.57167 3.202807,3.20279 0.630673,0.6311 -0.383681,2.35204 -0.383681,2.35204 -1.277114,1.6766 -2.442924,3.43474 -3.511319,5.263 5e-4,-2.6e-4 -1.219523,1.59254 -2.043441,1.25109 -0.824349,-0.34227 -4.170305,-1.72652 -4.170305,-1.72652 -0.934223,-0.38692 -2.006409,0.0591 -2.393777,0.99256 l -2.4604845,5.95505 c -0.3869202,0.9334 0.049974,1.99848 0.9841971,2.38542 0,0 3.3458524,1.3934 4.1703054,1.73484 0.824348,0.34188 0.558831,2.32704 0.558831,2.32704 -0.529709,2.01873 -0.941702,4.08997 -1.226089,6.19715 h -0.01723 c 2.59e-4,2.6e-4 -0.500757,1.95213 -1.392899,1.9517 H 7.1380874 c -1.0112865,2.5e-4 -1.8432693,0.81447 -1.8432693,1.8266 v 6.43069 c 2.585e-4,1.01085 0.8315692,1.8266 1.8432693,1.8266 h 4.5121966 c 0.891711,0 1.392899,1.9517 1.392899,1.9517 h 0.01723 c 0.285542,2.11561 0.693244,4.19539 1.226089,6.22196 0.01034,0.0779 0.265311,1.96799 -0.542133,2.302 -0.824332,0.34103 -4.1871068,1.73484 -4.1871068,1.73484 -0.9342402,0.38734 -1.3706865,1.45034 -0.9841971,2.38542 l 2.4604839,5.95507 c 0.386938,0.9338 1.45952,1.37858 2.393777,0.99252 0,0 3.345577,-1.3859 4.170305,-1.7265 0.823918,-0.34144 2.043442,1.2511 2.043442,1.2511 1.068446,1.8281 2.234291,3.58633 3.511319,5.26299 5.17e-4,0 1.014784,1.72137 0.383663,2.35204 -0.631535,0.63112 -3.202789,3.20281 -3.202789,3.20281 -0.714888,0.71489 -0.714888,1.86986 0,2.58559 l 4.553848,4.55383 c 0.714888,0.71489 1.879043,0.71489 2.593932,0 0,0 2.563362,-2.56376 3.194517,-3.19452 0.630691,-0.6311 2.352058,0.38367 2.352058,0.38367 1.676614,1.27709 3.434738,2.44296 5.262997,3.51133 5e-4,-2.7e-4 1.610046,1.21162 1.267775,2.0351 -0.341875,0.82435 -1.73486,4.17031 -1.73486,4.17031 -0.38649,0.93341 0.04997,2.006 0.984197,2.39378 l 5.95507,2.47714 c 0.934223,0.38736 2.014767,-0.067 2.402083,-1.00087 0,0 1.376305,-3.34586 1.718179,-4.17031 0.341013,-0.82435 2.327036,-0.55049 2.327036,-0.55049 2.018937,0.52974 4.089968,0.95006 6.197135,1.23443 0,0 1.952557,0.50033 1.951713,1.39288 v 4.52904 c 2.58e-4,1.01083 0.814888,1.82574 1.826605,1.82658 h 6.447212 c 1.010856,0 1.826192,-0.81488 1.826623,-1.82658 0,0 -2.76e-4,-3.63545 0,-4.52904 -2.76e-4,-0.89171 1.935014,-1.39288 1.935014,-1.39288 2.112854,-0.28497 4.189795,-0.70277 6.213678,-1.23443 -5.51e-4,-2.6e-4 1.969325,-0.27386 2.310338,0.55049 0.341444,0.82435 1.743183,4.17031 1.743183,4.17031 0.38692,0.93339 1.458675,1.38697 2.39376,1.00087 l 5.946798,-2.47714 c 0.933827,-0.38778 1.370256,-1.4587 0.98418,-2.39378 0,0 -1.385041,-3.34585 -1.726519,-4.17031 -0.341444,-0.82434 1.251093,-2.0351 1.251093,-2.0351 1.828105,-1.06846 3.586332,-2.2343 5.262998,-3.51133 0,2.7e-4 1.729725,-1.01477 2.360398,-0.38367 0.631121,0.63069 3.194523,3.19452 3.194523,3.19452 0.71573,0.71363 1.87737,0.71363 2.59395,0 l 4.54556,-4.55383 c 0.7149,-0.71487 0.71531,-1.87027 0,-2.58559 0,0 -2.56294,-2.57255 -3.19452,-3.20281 -0.63111,-0.6315 0.38366,-2.35204 0.38366,-2.35204 1.27749,-1.67709 2.45938,-3.4342 3.52816,-5.26299 -2.8e-4,0 1.20325,-1.60922 2.02677,-1.26778 0.82478,0.34188 4.17858,1.74318 4.17858,1.74318 0.93424,0.38606 1.99767,-0.0588 2.38542,-0.99252 l 2.46882,-5.95507 c 0.38649,-0.93465 -0.067,-1.99765 -1.00087,-2.38542 0,0 -3.34586,-1.39339 -4.17031,-1.73484 -0.82435,-0.34144 -0.55047,-2.32703 -0.55047,-2.32703 0.52972,-2.01894 0.95002,-4.08997 1.23441,-6.19716 0,2.8e-4 0.50993,-1.95254 1.40121,-1.95169 h 4.52074 c 1.01044,-0.001 1.82576,-0.81446 1.82662,-1.82661 v -6.43067 c 0,-1.01085 -0.81533,-1.84327 -1.82662,-1.84327 h -4.52074 c -0.89213,0 -1.40121,-1.93501 -1.40121,-1.93501 -0.28439,-2.1072 -0.70469,-4.17804 -1.23441,-6.19715 0,0 -0.27345,-1.98599 0.55047,-2.32704 0.82435,-0.34101 4.17031,-1.73484 4.17031,-1.73484 0.93382,-0.38692 1.38693,-1.45911 1.00087,-2.39378 l -2.46882,-5.94678 c -0.38733,-0.93422 -1.45118,-1.37861 -2.38542,-0.99255 0,0 -3.35331,1.38466 -4.17858,1.72653 -0.82391,0.34186 -2.02677,-1.25109 -2.02677,-1.25109 -1.06873,-1.82873 -2.25061,-3.5858 -3.52816,-5.263 2.8e-4,-8.6e-4 -1.01434,-1.72136 -0.38366,-2.35206 0.63152,-0.63024 3.19452,-3.20278 3.19452,-3.20278 0.7149,-0.71529 0.71447,-1.86988 0,-2.5856 l -4.54263,-4.5453 c -0.71532,-0.71402 -1.87862,-0.71402 -2.59394,0 0,0 -2.56293,2.5638 -3.194516,3.19452 -0.630691,0.63155 -2.360416,-0.38366 -2.360416,-0.38366 -1.675321,-1.27612 -3.436323,-2.4436 -5.26298,-3.51132 5.51e-4,2.6e-4 -1.592537,-1.21077 -1.251093,-2.03512 0.341874,-0.82435 1.726519,-4.1703 1.726519,-4.1703 0.38692,-0.93423 -0.05032,-2.006 -0.984197,-2.39376 l -5.946523,-2.47951 c -0.934223,-0.38606 -2.00684,0.0667 -2.39376,1.00087 0,0 -1.401343,3.3456 -1.743183,4.17031 -0.341013,0.82435 -2.310338,0.55047 -2.310338,0.55047 -2.024072,-0.53162 -4.10091,-0.94944 -6.213677,-1.23439 0,2.6e-4 -1.935032,-0.50119 -1.935032,-1.3929 v -4.52902 c 0,-1.01085 -0.832,-1.8266 -1.843252,-1.8266 h -6.430686 z m 3.21935,14.98801 c 24.363913,0 44.113133,19.75777 44.113133,44.12115 0,24.36393 -19.749496,44.11314 -44.113133,44.11314 -24.36393,0 -44.113165,-19.74949 -44.113165,-44.11314 0,-24.36392 19.749493,-44.12115 44.113165,-44.12115 z"
         inkscape:connector-curvature="0"
         style="fill:#613583;stroke-width:0.278015;fill-opacity:1"
         id="path4708-4" />
      <g
         id="g23618">
        <circle
           cx="64.000031"
           cy="236"
           r="59.504131"
           id="circle2892"
           style="display:inline;opacity:0.1;vector-effect:none;fill:none;fill-opacity:1;stroke:#000000;stroke-width:0.99;stroke-linecap:butt;stroke-linejoin:miter;stroke-miterlimit:4;stroke-dasharray:0.99, 0.99;stroke-dashoffset:0;stroke-opacity:1;marker:none;marker-start:none;marker-mid:none;marker-end:none;paint-order:normal;enable-background:new" />
        <rect
           ry="8"
           rx="8"
           y="180.49496"
           x="20.495007"
           height="111.01005"
           width="87.009987"
           id="rect2894"
           style="display:inline;opacity:0.1;vector-effect:none;fill:none;fill-opacity:1;stroke:#000000;stroke-width:0.99;stroke-linecap:butt;stroke-linejoin:miter;stroke-miterlimit:4;stroke-dasharray:0.99, 0.99;stroke-dashoffset:0;stroke-opacity:1;marker:none;marker-start:none;marker-mid:none;marker-end:none;paint-order:normal;enable-background:new" />
        <g
           id="g23610">
          <rect
             ry="8"
             rx="8"
             y="184.49524"
             x="12.495266"
             height="103.00952"
             width="103.00952"
             id="rect2896"
             style="display:inline;opacity:0.1;vector-effect:none;fill:none;fill-opacity:1;stroke:#000000;stroke-width:0.99;stroke-linecap:butt;stroke-linejoin:miter;stroke-miterlimit:4;stroke-dasharray:0.99, 0.99;stroke-dashoffset:0;stroke-opacity:1;marker:none;marker-start:none;marker-mid:none;marker-end:none;paint-order:normal;enable-background:new" />
          <rect
             ry="8"
             rx="8"
             y="200.49496"
             x="8.4950066"
             height="87.010048"
             width="111.01004"
             id="rect2898"
             style="display:inline;opacity:0.1;vector-effect:none;fill:none;fill-opacity:1;stroke:#000000;stroke-width:0.99;stroke-linecap:butt;stroke-linejoin:miter;stroke-miterlimit:4;stroke-dasharray:0.99, 0.99;stroke-dashoffset:0;stroke-opacity:1;marker:none;marker-start:none;marker-mid:none;marker-end:none;paint-order:normal;enable-background:new" />
          <path
             inkscape:connector-curvature="0"
             id="path2900"
             d="M 2.6203015e-5,288.99999 H 128.00003"
             style="display:inline;fill:none;stroke:#62a0ea;stroke-width:2;stroke-linecap:butt;stroke-linejoin:miter;stroke-miterlimit:4;stroke-dasharray:none;stroke-opacity:1;enable-background:new" />
        </g>
      </g>
      <g
         class="SlideGroup"
         id="g49"
         transform="matrix(0.01112753,0,0,0.01146266,21.687448,178.34619)"
         style="display:inline;fill-rule:evenodd;stroke-width:28.222;stroke-linejoin:round;enable-background:new;fill:#99c1f1;fill-opacity:0.81176472">
        <g
           id="g51"
           transform="matrix(0.64145137,0,0,0.6806308,131.75711,139.98045)"
           style="fill:#99c1f1;fill-opacity:0.81176472">
          <g
             id="id1"
             class="Slide"
             clip-path="url(#presentation_clip_path)"
             style="fill:#99c1f1;fill-opacity:0.81176472">
            <g
               class="Page"
               id="g54"
               style="fill:#99c1f1;fill-opacity:0.81176472">
              <g
                 class="Group"
                 id="g56"
                 style="fill:#99c1f1;fill-opacity:0.81176472">
                <g
                   class="com.sun.star.drawing.PolyPolygonShape"
                   id="g58"
                   style="fill:#99c1f1;fill-opacity:0.81176472">
                  <g
                     id="id3"
                     style="fill:#99c1f1;fill-opacity:0.81176472">
                    <path
                       d="M 1000,13000 V 1000 h 6667 l 3333,3333 v 8667 z"
                       id="path61"
                       inkscape:connector-curvature="0"
                       style="fill:#99c1f1;stroke:none;fill-opacity:0.81176472" />
                    <path
                       d="M 1000,13000 V 1000 h 6667 l 3333,3333 v 8667 z"
                       id="path63"
                       inkscape:connector-curvature="0"
                       style="fill:#99c1f1;stroke:#000000;stroke-width:300;stroke-linejoin:round;fill-opacity:0.81176472" />
                  </g>
                </g>
                <g
                   class="com.sun.star.drawing.CustomShape"
                   id="g65"
                   style="fill:#99c1f1;fill-opacity:0.81176472">
                  <g
                     id="id4"
                     style="fill:#99c1f1;fill-opacity:0.81176472">
                    <path
                       d="m 7666,999 3334,3334 H 7666 Z m 0,0 z m 3334,3334 z"
                       id="path68"
                       inkscape:connector-curvature="0"
                       style="fill:#99c1f1;stroke:none;fill-opacity:0.81176472" />
                    <path
                       d="m 7666,999 3334,3334 H 7666 Z"
                       id="path70"
                       inkscape:connector-curvature="0"
                       style="fill:#99c1f1;stroke:#000000;stroke-width:300;stroke-linejoin:round;fill-opacity:0.81176472" />
                  </g>
                </g>
              </g>
            </g>
          </g>
        </g>
      </g>
      <text
         xml:space="preserve"
         transform="matrix(2.9321351,0,0,2.9321351,323.52566,274.56249)"
         id="text21286"
         style="font-style:normal;font-variant:normal;font-weight:normal;font-stretch:normal;font-size:12px;font-family:'DejaVu Sans Mono';-inkscape-font-specification:'DejaVu Sans Mono, Normal';font-variant-ligatures:normal;font-variant-caps:normal;font-variant-numeric:normal;font-variant-east-asian:normal;white-space:pre;shape-inside:url(#rect21288);fill:#000000;fill-opacity:1;stroke:#000000;stroke-width:0.623622;stroke-dasharray:none"><tspan
           x="-96.009766"
           y="-2.5429688"
           id="tspan1186">MD</tspan></text>
      <text
         xml:space="preserve"
         transform="matrix(2.3288182,0,0,2.3520665,277.77073,238.25955)"
         id="text21286-6"
         style="font-style:normal;font-variant:normal;font-weight:normal;font-stretch:normal;font-size:12px;font-family:'DejaVu Sans Mono';-inkscape-font-specification:'DejaVu Sans Mono, Normal';font-variant-ligatures:normal;font-variant-caps:normal;font-variant-numeric:normal;font-variant-east-asian:normal;white-space:pre;shape-inside:url(#rect21288-5);display:inline;fill:#000000;fill-opacity:1;stroke:#000000;stroke-width:0.623622;stroke-dasharray:none;enable-background:new"><tspan
           x="-96.009766"
           y="-2.5429688"
           id="tspan1188">#</tspan></text>
    </g>
  </g>
</svg>
